Coordinates
nRows=4
nColumns=38

# SIMM Motion File Header:
name Coordinates
datacolumns 38
datarows 4
otherdata 1
range 1.16449999999999990000 1.16750000000000000000

Units are S.I. units (second, meters, Newtons, ...)
Angles are in degrees.

endheader
time	pelvis_tilt	pelvis_list	pelvis_rotation	pelvis_tx	pelvis_ty	pelvis_tz	hip_flexion_r	hip_adduction_r	hip_rotation_r	knee_angle_r	ankle_angle_r	subtalar_angle_r	mtp_angle_r	hip_flexion_l	hip_adduction_l	hip_rotation_l	knee_angle_l	ankle_angle_l	subtalar_angle_l	mtp_angle_l	lumbar_extension	lumbar_bending	lumbar_rotation	arm_flex_r	arm_add_r	arm_rot_r	elbow_flex_r	pro_sup_r	wrist_flex_r	wrist_dev_r	arm_flex_l	arm_add_l	arm_rot_l	elbow_flex_l	pro_sup_l	wrist_flex_l	wrist_dev_l
      1.16449999999999990000	     -2.82417450377340980000	      2.86987598514143770000	     -7.19274045051970390000	      1.17309388979658660000	      0.95404703968562465000	     -0.31310666286864414000	     34.07432782102687000000	      4.52314467467728850000	      3.55367198658191750000	   -122.25430375684998000000	      9.09128068601837920000	      0.00000000000006619283	     -0.00000000000003243943	      1.81929326059386430000	     10.26308967895536900000	      3.37139068314609250000	    -28.36775865123299000000	     18.91112899898734100000	     -0.00000000000001843124	     -0.00000000000003656321	    -16.75292903049831500000	     -5.21568421759825450000	     -9.05950614922174500000	    -29.18258676168399300000	    -16.58423131919686000000	      0.10999929482328602000	    101.63804758992023000000	     97.70047223304173700000	      0.00000000000000482199	     -0.00000000000000197109	    -14.66392041273766900000	    -16.65050393251315000000	    -15.87666588686470700000	    120.72535636022562000000	     89.98323336366797800000	     -0.00000000000000394006	      0.00000000000003820384
      1.16550000000000000000	     -2.86159342307270670000	      2.75860772537012620000	     -7.21487932921958740000	      1.17348297400413080000	      0.95435466097108246000	     -0.31302076277761359000	     34.40315424009810400000	      4.65616573568240980000	      3.48851762779030090000	   -122.02360080663296000000	      9.22238898671914060000	      0.00000000000006643843	     -0.00000000000003249029	      1.37301078513245820000	     10.16740108187514500000	      3.49002273208693440000	    -27.98318460121871000000	     18.73399732683325100000	     -0.00000000000001848181	     -0.00000000000003627524	    -16.68316319771331300000	     -5.06725124994447640000	     -9.17130782257164870000	    -29.44482477797496500000	    -16.64184900774293800000	     -0.00864752389137387470	    101.95301677403323000000	     97.75970544215825000000	      0.00000000000000484491	     -0.00000000000000200561	    -14.59598239737119800000	    -16.50503575420467000000	    -15.87287042115533000000	    120.94578963127779000000	     89.97222885790897400000	     -0.00000000000000395259	      0.00000000000003821497
      1.16649999999999990000	     -2.90003563582257630000	      2.64441613922942500000	     -7.23376581891976490000	      1.17387882711743120000	      0.95466994382129278000	     -0.31293815033135775000	     34.72851459773596600000	      4.78898052352487010000	      3.41778876080077730000	   -121.78435846879859000000	      9.35355781939900940000	      0.00000000000006668526	     -0.00000000000003254136	      0.92653592432392162000	     10.06750897826727000000	      3.61069521787716140000	    -27.59538303119829500000	     18.54693431180695700000	     -0.00000000000001854211	     -0.00000000000003598899	    -16.61238496266454900000	     -4.91454127739121740000	     -9.28114581060990500000	    -29.71159901443244100000	    -16.69811058769373700000	     -0.13179116156693341000	    102.27162307772127000000	     97.81995992114110500000	      0.00000000000000486753	     -0.00000000000000203885	    -14.52419799281533800000	    -16.36148476106388800000	    -15.86079721770554200000	    121.16659404125004000000	     89.96463374483859400000	     -0.00000000000000396565	      0.00000000000003819508
      1.16750000000000000000	     -2.93951733855040900000	      2.52732657824821590000	     -7.24945373512732690000	      1.17428125087823630000	      0.95499264984867360000	     -0.31285874630257560000	     35.05043501528692900000	      4.92155256760691630000	      3.34156798264537120000	   -121.53666965366594000000	      9.48471510812250780000	      0.00000000000006693080	     -0.00000000000003259294	      0.48009168810577380000	      9.96337930928097570000	      3.73323567112887210000	    -27.20466009910467900000	     18.34996419679316700000	     -0.00000000000001865964	     -0.00000000000003573017	    -16.54058864179994300000	     -4.75759892913379460000	     -9.38900416265308020000	    -29.98281987934752700000	    -16.75294561106589300000	     -0.25933600326108064000	    102.59359590991639000000	     97.88105094917722200000	      0.00000000000000488993	     -0.00000000000000207202	    -14.44864484266488900000	    -16.21991281088483900000	    -15.84048432576641500000	    121.38764608456545000000	     89.96049007953421000000	     -0.00000000000000397868	      0.00000000000003815882
